<svg width="31" height="31" viewBox="0 0 31 31" fill="none" xmlns="http://www.w3.org/2000/svg">
<path fill-rule="evenodd" clip-rule="evenodd" d="M3.875 14.2083C3.875 9.33746 3.875 6.90137 5.38883 5.38883C6.90267 3.87629 9.33746 3.875 14.2083 3.875H16.7917C21.6625 3.875 24.0986 3.875 25.6112 5.38883C27.1237 6.90267 27.125 9.33746 27.125 14.2083V16.7917C27.125 21.6625 27.125 24.0986 25.6112 25.6112C24.0973 27.1237 21.6625 27.125 16.7917 27.125H14.2083C9.33746 27.125 6.90137 27.125 5.38883 25.6112C3.87629 24.0973 3.875 21.6625 3.875 16.7917V14.2083ZM23.25 9.6875C23.25 10.2014 23.0459 10.6942 22.6825 11.0575C22.3192 11.4209 21.8264 11.625 21.3125 11.625C20.7986 11.625 20.3058 11.4209 19.9425 11.0575C19.5791 10.6942 19.375 10.2014 19.375 9.6875C19.375 9.17364 19.5791 8.68083 19.9425 8.31748C20.3058 7.95413 20.7986 7.75 21.3125 7.75C21.8264 7.75 22.3192 7.95413 22.6825 8.31748C23.0459 8.68083 23.25 9.17364 23.25 9.6875ZM18.0833 16.7917C18.0833 17.4768 17.8112 18.1339 17.3267 18.6184C16.8422 19.1028 16.1851 19.375 15.5 19.375C14.8149 19.375 14.1578 19.1028 13.6733 18.6184C13.1888 18.1339 12.9167 17.4768 12.9167 16.7917C12.9167 16.1065 13.1888 15.4494 13.6733 14.965C14.1578 14.4805 14.8149 14.2083 15.5 14.2083C16.1851 14.2083 16.8422 14.4805 17.3267 14.965C17.8112 15.4494 18.0833 16.1065 18.0833 16.7917ZM20.6667 16.7917C20.6667 18.162 20.1223 19.4761 19.1534 20.4451C18.1844 21.414 16.8703 21.9583 15.5 21.9583C14.1297 21.9583 12.8156 21.414 11.8466 20.4451C10.8777 19.4761 10.3333 18.162 10.3333 16.7917C10.3333 15.4214 10.8777 14.1072 11.8466 13.1383C12.8156 12.1693 14.1297 11.625 15.5 11.625C16.8703 11.625 18.1844 12.1693 19.1534 13.1383C20.1223 14.1072 20.6667 15.4214 20.6667 16.7917Z" fill="#1E1E1E"/>
</svg>
