<svg width="27" height="27" viewBox="0 0 27 27" fill="none" xmlns="http://www.w3.org/2000/svg">
<path fill-rule="evenodd" clip-rule="evenodd" d="M17.6906 24.75V16.0369H20.6156L21.0533 12.6416H17.6895V10.4738C17.6895 9.4905 17.9629 8.82 19.3736 8.82H21.1714V5.7825C20.3008 5.68896 19.4257 5.64389 18.5501 5.6475C15.9581 5.6475 14.184 7.23038 14.184 10.1363V12.6416H11.25V16.0369H14.1829V24.75H3.492C2.80575 24.75 2.25 24.1943 2.25 23.508V3.492C2.25 2.80575 2.80575 2.25 3.492 2.25H23.508C24.1943 2.25 24.75 2.80575 24.75 3.492V23.508C24.75 24.1943 24.1943 24.75 23.508 24.75H17.6906Z" fill="#1E1E1E"/>
</svg>
