<svg width="27" height="27" viewBox="0 0 27 27" fill="none" xmlns="http://www.w3.org/2000/svg">
<path fill-rule="evenodd" clip-rule="evenodd" d="M7.05306 0.916106C9.12435 0.684678 11.2863 0.482178 13.5003 0.482178C15.7143 0.482178 17.8762 0.684678 19.9475 0.916106C21.5218 1.09662 22.9883 1.80589 24.1072 2.92796C25.2261 4.05003 25.9313 5.51852 26.1073 7.09332C26.3291 9.15496 26.5181 11.3015 26.5181 13.5C26.5181 15.6986 26.3291 17.8451 26.1073 19.9067C25.9313 21.4816 25.2261 22.95 24.1072 24.0721C22.9883 25.1942 21.5218 25.9034 19.9475 26.084C17.8762 26.3154 15.7143 26.5179 13.5003 26.5179C11.2863 26.5179 9.12435 26.3154 7.05306 26.084C5.47876 25.9034 4.01227 25.1942 2.89335 24.0721C1.77444 22.95 1.06929 21.4816 0.893208 19.9067C0.671422 17.8451 0.482422 15.6986 0.482422 13.5C0.482422 11.3015 0.671422 9.15496 0.893208 7.09332C1.06929 5.51852 1.77444 4.05003 2.89335 2.92796C4.01227 1.80589 5.47876 1.09662 7.05306 0.916106ZM16.0691 5.55818C16.0026 5.26961 15.8321 5.01565 15.5902 4.84476C15.3483 4.67386 15.052 4.59798 14.7578 4.6316C14.4636 4.66522 14.192 4.80598 13.9949 5.02704C13.7978 5.24809 13.689 5.53396 13.6893 5.83011V16.9715C13.6893 17.5635 13.5137 18.1421 13.1848 18.6344C12.856 19.1266 12.3885 19.5102 11.8416 19.7368C11.2946 19.9633 10.6928 20.0226 10.1122 19.9071C9.53159 19.7916 8.99826 19.5065 8.57966 19.0879C8.16107 18.6693 7.876 18.136 7.76051 17.5554C7.64501 16.9748 7.70429 16.373 7.93083 15.826C8.15738 15.2791 8.54102 14.8116 9.03324 14.4828C9.52545 14.1539 10.1041 13.9783 10.6961 13.9783C11.0158 13.9783 11.3224 13.8513 11.5485 13.6253C11.7745 13.3992 11.9015 13.0926 11.9015 12.773C11.9015 12.4533 11.7745 12.1467 11.5485 11.9206C11.3224 11.6946 11.0158 11.5676 10.6961 11.5676C9.62735 11.5676 8.58257 11.8845 7.69391 12.4783C6.80525 13.0721 6.11263 13.9161 5.70362 14.9035C5.29462 15.8909 5.1876 16.9775 5.39611 18.0257C5.60462 19.0739 6.11929 20.0368 6.87503 20.7926C7.63078 21.5483 8.59365 22.063 9.6419 22.2715C10.6901 22.48 11.7767 22.373 12.7641 21.964C13.7515 21.555 14.5955 20.8623 15.1893 19.9737C15.7831 19.085 16.1 18.0402 16.1 16.9715V10.2407C17.2571 11.2243 18.7499 11.7643 20.501 11.7643C20.8207 11.7643 21.1273 11.6373 21.3533 11.4113C21.5794 11.1852 21.7064 10.8786 21.7064 10.559C21.7064 10.2393 21.5794 9.9327 21.3533 9.70665C21.1273 9.4806 20.8207 9.35361 20.501 9.35361C19.2281 9.35361 18.2831 8.96018 17.5869 8.34111C16.8772 7.70853 16.3507 6.76739 16.0691 5.55818Z" fill="#1E1E1E"/>
</svg>
